<svg width="20" height="22" viewBox="0 0 20 22" fill="none" xmlns="http://www.w3.org/2000/svg">
<path d="M0.607994 5.99185L5.25934 3.27157L8.76841 1.27571C9.53278 0.840957 10.4694 0.83976 11.2348 1.27256L14.7491 3.25951L19.3918 5.9669C19.4563 6.00455 19.5001 6.07746 19.5 6.16074L19.4834 15.977C19.483 16.2526 19.2596 16.4758 18.984 16.4762L1.00475 16.4987C0.728441 16.4991 0.504235 16.2753 0.504119 15.999L0.5 6.18527C0.499965 6.1022 0.543634 6.02949 0.607994 5.99185Z" stroke="#1B1717"/>
<path d="M5.79735 19.2286L5.79736 19.2286L5.79624 19.2268L4.58298 17.2771C4.47247 17.0995 4.47234 16.8854 4.58259 16.7078L5.78997 14.762L5.78997 14.762L5.79108 14.7602L6.98911 12.811C7.1017 12.6279 7.32364 12.4992 7.58139 12.5L9.99186 12.5074V12.5074L9.99377 12.5074L12.4071 12.5056C12.6639 12.5054 12.8848 12.6336 12.9973 12.816L14.2026 14.7714L14.2038 14.7732L15.417 16.7229C15.5275 16.9005 15.5277 17.1146 15.4174 17.2922L14.21 19.238L14.2089 19.2398L13.0109 21.189C12.8983 21.3721 12.6764 21.5008 12.4186 21.5L10.0081 21.4926L10.0062 21.4926L7.59286 21.4944C7.3361 21.4946 7.11516 21.3664 7.00272 21.184L5.79735 19.2286Z" fill="#E0E0E0" stroke="#1B1717"/>
</svg>
