<svg width="30" height="30" viewBox="0 0 30 30" fill="none" xmlns="http://www.w3.org/2000/svg">
<path d="M11.2064 12.2428L11.2064 12.2428L11.2054 12.241L10.08 10.2913C9.97346 10.1067 9.97332 9.87831 10.0797 9.69355L11.1995 7.74778L11.1995 7.74778L11.2006 7.746L12.3118 5.79686C12.4174 5.61164 12.6125 5.49931 12.8216 5.5L15.0574 5.5074V5.5074L15.0595 5.5074L17.298 5.50556C17.5064 5.50539 17.7006 5.61737 17.806 5.80178L18.9241 7.75721L18.9251 7.75898L20.0504 9.70872C20.157 9.89334 20.1571 10.1217 20.0508 10.3065L18.9309 12.2522L18.9299 12.254L17.8187 14.2031C17.7131 14.3884 17.518 14.5007 17.3088 14.5L15.073 14.4926L15.0709 14.4926L12.8325 14.4944C12.624 14.4946 12.4298 14.3826 12.3244 14.1982L11.2064 12.2428Z" stroke="#1B1717"/>
<path d="M24.4248 25L22.5115 21.7204L20.6107 18.4312C20.2808 17.8604 19.6697 17.5088 19.0083 17.5094L15.2025 17.5124L11.4013 17.5C10.7375 17.4978 10.1236 17.8505 9.7932 18.4238L7.90397 21.7024L6 24.9754" stroke="#1B1717" stroke-linecap="round"/>
</svg>
